<?xml version="1.0" encoding="UTF-8" standalone="no"?>
<!DOCTYPE svg PUBLIC "-//W3C//DTD SVG 1.1//EN"
 "http://www.w3.org/Graphics/SVG/1.1/DTD/svg11.dtd">
<!-- Generated by graphviz version 2.43.0 (0)
 -->
<!-- Title: %3 Pages: 1 -->
<svg width="524pt" height="914pt"
 viewBox="0.00 0.00 524.05 914.00" xmlns="http://www.w3.org/2000/svg" xmlns:xlink="http://www.w3.org/1999/xlink">
<g id="graph0" class="graph" transform="scale(1 1) rotate(0) translate(4 910)">
<title>%3</title>
<polygon fill="white" stroke="transparent" points="-4,4 -4,-910 520.05,-910 520.05,4 -4,4"/>
<!-- node0 -->
<g id="node1" class="node">
<title>node0</title>
<ellipse fill="none" stroke="black" cx="334.05" cy="-627" rx="37.09" ry="18"/>
<text text-anchor="middle" x="334.05" y="-623.3" font-family="Times,serif" font-size="14.00">15,67</text>
</g>
<!-- node24 -->
<g id="node2" class="node">
<title>node24</title>
<ellipse fill="none" stroke="black" cx="279.05" cy="-540" rx="37.09" ry="18"/>
<text text-anchor="middle" x="279.05" y="-536.3" font-family="Times,serif" font-size="14.00">31,57</text>
</g>
<!-- node0&#45;&gt;node24 -->
<g id="edge1" class="edge">
<title>node0&#45;&gt;node24</title>
<path fill="none" stroke="black" d="M323.44,-609.61C315.45,-597.26 304.36,-580.12 295.26,-566.05"/>
<polygon fill="black" stroke="black" points="297.99,-563.83 289.62,-557.34 292.11,-567.64 297.99,-563.83"/>
<text text-anchor="middle" x="319.55" y="-579.8" font-family="Times,serif" font-size="14.00">82</text>
</g>
<!-- node19 -->
<g id="node3" class="node">
<title>node19</title>
<ellipse fill="none" stroke="black" cx="365.05" cy="-540" rx="31.4" ry="18"/>
<text text-anchor="middle" x="365.05" y="-536.3" font-family="Times,serif" font-size="14.00">7,81</text>
</g>
<!-- node0&#45;&gt;node19 -->
<g id="edge2" class="edge">
<title>node0&#45;&gt;node19</title>
<path fill="none" stroke="black" d="M340.17,-609.21C344.54,-597.22 350.51,-580.85 355.51,-567.16"/>
<polygon fill="black" stroke="black" points="358.8,-568.35 358.93,-557.76 352.22,-565.95 358.8,-568.35"/>
<text text-anchor="middle" x="361.55" y="-579.8" font-family="Times,serif" font-size="14.00">98</text>
</g>
<!-- node12 -->
<g id="node22" class="node">
<title>node12</title>
<ellipse fill="none" stroke="black" cx="313.05" cy="-453" rx="37.09" ry="18"/>
<text text-anchor="middle" x="313.05" y="-449.3" font-family="Times,serif" font-size="14.00">43,77</text>
</g>
<!-- node24&#45;&gt;node12 -->
<g id="edge50" class="edge">
<title>node24&#45;&gt;node12</title>
<path fill="none" stroke="black" d="M285.76,-522.21C290.56,-510.22 297.11,-493.85 302.58,-480.16"/>
<polygon fill="black" stroke="black" points="305.88,-481.34 306.34,-470.76 299.38,-478.74 305.88,-481.34"/>
<text text-anchor="middle" x="308.55" y="-492.8" font-family="Times,serif" font-size="14.00">68</text>
</g>
<!-- node21 -->
<g id="node26" class="node">
<title>node21</title>
<ellipse fill="none" stroke="black" cx="221.05" cy="-453" rx="37.09" ry="18"/>
<text text-anchor="middle" x="221.05" y="-449.3" font-family="Times,serif" font-size="14.00">63,67</text>
</g>
<!-- node24&#45;&gt;node21 -->
<g id="edge49" class="edge">
<title>node24&#45;&gt;node21</title>
<path fill="none" stroke="black" d="M267.86,-522.61C259.36,-510.15 247.51,-492.79 237.87,-478.65"/>
<polygon fill="black" stroke="black" points="240.72,-476.63 232.2,-470.34 234.94,-480.57 240.72,-476.63"/>
<text text-anchor="middle" x="268.05" y="-492.8" font-family="Times,serif" font-size="14.00">174</text>
</g>
<!-- node19&#45;&gt;node12 -->
<g id="edge39" class="edge">
<title>node19&#45;&gt;node12</title>
<path fill="none" stroke="black" d="M355.02,-522.61C347.47,-510.26 336.98,-493.12 328.37,-479.05"/>
<polygon fill="black" stroke="black" points="331.25,-477.04 323.04,-470.34 325.28,-480.7 331.25,-477.04"/>
<text text-anchor="middle" x="357.05" y="-492.8" font-family="Times,serif" font-size="14.00">220</text>
</g>
<!-- node16 -->
<g id="node25" class="node">
<title>node16</title>
<ellipse fill="none" stroke="black" cx="411.05" cy="-453" rx="42.79" ry="18"/>
<text text-anchor="middle" x="411.05" y="-449.3" font-family="Times,serif" font-size="14.00">17,101</text>
</g>
<!-- node19&#45;&gt;node16 -->
<g id="edge40" class="edge">
<title>node19&#45;&gt;node16</title>
<path fill="none" stroke="black" d="M375.73,-522.85C379.46,-517 383.58,-510.28 387.05,-504 391.28,-496.33 395.54,-487.79 399.27,-479.98"/>
<polygon fill="black" stroke="black" points="402.44,-481.45 403.51,-470.91 396.1,-478.48 402.44,-481.45"/>
<text text-anchor="middle" x="409.05" y="-492.8" font-family="Times,serif" font-size="14.00">150</text>
</g>
<!-- node1 -->
<g id="node4" class="node">
<title>node1</title>
<ellipse fill="none" stroke="black" cx="251.05" cy="-801" rx="37.09" ry="18"/>
<text text-anchor="middle" x="251.05" y="-797.3" font-family="Times,serif" font-size="14.00">13,15</text>
</g>
<!-- node7 -->
<g id="node5" class="node">
<title>node7</title>
<ellipse fill="none" stroke="black" cx="209.05" cy="-714" rx="37.09" ry="18"/>
<text text-anchor="middle" x="209.05" y="-710.3" font-family="Times,serif" font-size="14.00">37,11</text>
</g>
<!-- node1&#45;&gt;node7 -->
<g id="edge3" class="edge">
<title>node1&#45;&gt;node7</title>
<path fill="none" stroke="black" d="M242.75,-783.21C236.77,-771.1 228.58,-754.53 221.77,-740.76"/>
<polygon fill="black" stroke="black" points="224.9,-739.17 217.33,-731.76 218.62,-742.27 224.9,-739.17"/>
<text text-anchor="middle" x="247.05" y="-753.8" font-family="Times,serif" font-size="14.00">216</text>
</g>
<!-- node22 -->
<g id="node6" class="node">
<title>node22</title>
<ellipse fill="none" stroke="black" cx="295.05" cy="-714" rx="31.4" ry="18"/>
<text text-anchor="middle" x="295.05" y="-710.3" font-family="Times,serif" font-size="14.00">9,35</text>
</g>
<!-- node1&#45;&gt;node22 -->
<g id="edge4" class="edge">
<title>node1&#45;&gt;node22</title>
<path fill="none" stroke="black" d="M259.74,-783.21C266.05,-771.02 274.69,-754.32 281.85,-740.49"/>
<polygon fill="black" stroke="black" points="285.03,-741.96 286.52,-731.47 278.82,-738.74 285.03,-741.96"/>
<text text-anchor="middle" x="290.05" y="-753.8" font-family="Times,serif" font-size="14.00">164</text>
</g>
<!-- node6 -->
<g id="node15" class="node">
<title>node6</title>
<ellipse fill="none" stroke="black" cx="156.05" cy="-627" rx="31.4" ry="18"/>
<text text-anchor="middle" x="156.05" y="-623.3" font-family="Times,serif" font-size="14.00">57,7</text>
</g>
<!-- node7&#45;&gt;node6 -->
<g id="edge15" class="edge">
<title>node7&#45;&gt;node6</title>
<path fill="none" stroke="black" d="M198.83,-696.61C191.08,-684.19 180.3,-666.9 171.5,-652.78"/>
<polygon fill="black" stroke="black" points="174.32,-650.68 166.05,-644.05 168.38,-654.39 174.32,-650.68"/>
<text text-anchor="middle" x="200.05" y="-666.8" font-family="Times,serif" font-size="14.00">148</text>
</g>
<!-- node17 -->
<g id="node18" class="node">
<title>node17</title>
<ellipse fill="none" stroke="black" cx="242.05" cy="-627" rx="37.09" ry="18"/>
<text text-anchor="middle" x="242.05" y="-623.3" font-family="Times,serif" font-size="14.00">39,43</text>
</g>
<!-- node7&#45;&gt;node17 -->
<g id="edge16" class="edge">
<title>node7&#45;&gt;node17</title>
<path fill="none" stroke="black" d="M215.57,-696.21C220.22,-684.22 226.58,-667.85 231.89,-654.16"/>
<polygon fill="black" stroke="black" points="235.18,-655.35 235.54,-644.76 228.66,-652.81 235.18,-655.35"/>
<text text-anchor="middle" x="242.05" y="-666.8" font-family="Times,serif" font-size="14.00">174</text>
</g>
<!-- node22&#45;&gt;node0 -->
<g id="edge46" class="edge">
<title>node22&#45;&gt;node0</title>
<path fill="none" stroke="black" d="M302.75,-696.21C308.25,-684.22 315.76,-667.85 322.05,-654.16"/>
<polygon fill="black" stroke="black" points="325.37,-655.31 326.36,-644.76 319.01,-652.39 325.37,-655.31"/>
<text text-anchor="middle" x="331.05" y="-666.8" font-family="Times,serif" font-size="14.00">294</text>
</g>
<!-- node22&#45;&gt;node17 -->
<g id="edge45" class="edge">
<title>node22&#45;&gt;node17</title>
<path fill="none" stroke="black" d="M284.83,-696.61C277.13,-684.26 266.44,-667.12 257.67,-653.05"/>
<polygon fill="black" stroke="black" points="260.5,-650.97 252.23,-644.34 254.56,-654.68 260.5,-650.97"/>
<text text-anchor="middle" x="286.05" y="-666.8" font-family="Times,serif" font-size="14.00">194</text>
</g>
<!-- node2 -->
<g id="node7" class="node">
<title>node2</title>
<ellipse fill="none" stroke="black" cx="192.05" cy="-366" rx="37.09" ry="18"/>
<text text-anchor="middle" x="192.05" y="-362.3" font-family="Times,serif" font-size="14.00">81,59</text>
</g>
<!-- node4 -->
<g id="node8" class="node">
<title>node4</title>
<ellipse fill="none" stroke="black" cx="142.05" cy="-279" rx="42.79" ry="18"/>
<text text-anchor="middle" x="142.05" y="-275.3" font-family="Times,serif" font-size="14.00">105,67</text>
</g>
<!-- node2&#45;&gt;node4 -->
<g id="edge5" class="edge">
<title>node2&#45;&gt;node4</title>
<path fill="none" stroke="black" d="M182.41,-348.61C175.19,-336.34 165.19,-319.34 156.94,-305.32"/>
<polygon fill="black" stroke="black" points="159.92,-303.47 151.83,-296.63 153.88,-307.02 159.92,-303.47"/>
<text text-anchor="middle" x="184.05" y="-318.8" font-family="Times,serif" font-size="14.00">136</text>
</g>
<!-- node5 -->
<g id="node9" class="node">
<title>node5</title>
<ellipse fill="none" stroke="black" cx="241.05" cy="-279" rx="37.09" ry="18"/>
<text text-anchor="middle" x="241.05" y="-275.3" font-family="Times,serif" font-size="14.00">77,77</text>
</g>
<!-- node2&#45;&gt;node5 -->
<g id="edge6" class="edge">
<title>node2&#45;&gt;node5</title>
<path fill="none" stroke="black" d="M199.82,-348.03C204.49,-338.2 210.74,-325.7 217.05,-315 219.09,-311.53 221.36,-307.94 223.66,-304.45"/>
<polygon fill="black" stroke="black" points="226.62,-306.32 229.34,-296.08 220.83,-302.39 226.62,-306.32"/>
<text text-anchor="middle" x="226.55" y="-318.8" font-family="Times,serif" font-size="14.00">70</text>
</g>
<!-- target -->
<g id="node12" class="node">
<title>target</title>
<ellipse fill="lightgrey" stroke="black" cx="230.05" cy="-18" rx="39.79" ry="18"/>
<text text-anchor="middle" x="230.05" y="-14.3" font-family="Times,serif" font-size="14.00">target</text>
</g>
<!-- node4&#45;&gt;target -->
<g id="edge9" class="edge">
<title>node4&#45;&gt;target</title>
<path fill="none" stroke="black" d="M136.45,-261.09C128.6,-235.18 116.05,-184.14 123.05,-141 129.7,-100.02 127.63,-83.29 157.05,-54 165.92,-45.17 177.45,-38.25 188.72,-32.97"/>
<polygon fill="black" stroke="black" points="190.28,-36.11 198.06,-28.92 187.5,-29.69 190.28,-36.11"/>
<text text-anchor="middle" x="137.05" y="-144.8" font-family="Times,serif" font-size="14.00">827</text>
</g>
<!-- node11 -->
<g id="node13" class="node">
<title>node11</title>
<ellipse fill="none" stroke="black" cx="192.05" cy="-192" rx="42.79" ry="18"/>
<text text-anchor="middle" x="192.05" y="-188.3" font-family="Times,serif" font-size="14.00">109,75</text>
</g>
<!-- node4&#45;&gt;node11 -->
<g id="edge10" class="edge">
<title>node4&#45;&gt;node11</title>
<path fill="none" stroke="black" d="M151.93,-261.21C159.05,-249.1 168.79,-232.53 176.89,-218.76"/>
<polygon fill="black" stroke="black" points="180.14,-220.15 182.19,-209.76 174.1,-216.6 180.14,-220.15"/>
<text text-anchor="middle" x="179.55" y="-231.8" font-family="Times,serif" font-size="14.00">40</text>
</g>
<!-- node5&#45;&gt;node11 -->
<g id="edge11" class="edge">
<title>node5&#45;&gt;node11</title>
<path fill="none" stroke="black" d="M231.37,-261.21C224.39,-249.1 214.84,-232.53 206.9,-218.76"/>
<polygon fill="black" stroke="black" points="209.73,-216.67 201.71,-209.76 203.67,-220.17 209.73,-216.67"/>
<text text-anchor="middle" x="234.05" y="-231.8" font-family="Times,serif" font-size="14.00">218</text>
</g>
<!-- node13 -->
<g id="node14" class="node">
<title>node13</title>
<ellipse fill="none" stroke="black" cx="297.05" cy="-192" rx="42.79" ry="18"/>
<text text-anchor="middle" x="297.05" y="-188.3" font-family="Times,serif" font-size="14.00">75,113</text>
</g>
<!-- node5&#45;&gt;node13 -->
<g id="edge12" class="edge">
<title>node5&#45;&gt;node13</title>
<path fill="none" stroke="black" d="M251.84,-261.61C259.93,-249.34 271.13,-232.34 280.36,-218.32"/>
<polygon fill="black" stroke="black" points="283.51,-219.9 286.09,-209.63 277.67,-216.05 283.51,-219.9"/>
<text text-anchor="middle" x="287.05" y="-231.8" font-family="Times,serif" font-size="14.00">162</text>
</g>
<!-- node3 -->
<g id="node10" class="node">
<title>node3</title>
<ellipse fill="none" stroke="black" cx="284.05" cy="-366" rx="37.09" ry="18"/>
<text text-anchor="middle" x="284.05" y="-362.3" font-family="Times,serif" font-size="14.00">61,85</text>
</g>
<!-- node3&#45;&gt;node5 -->
<g id="edge7" class="edge">
<title>node3&#45;&gt;node5</title>
<path fill="none" stroke="black" d="M262.12,-351.08C255.1,-345.44 248.11,-338.28 244.05,-330 240.62,-323.02 239.23,-314.82 238.86,-307.1"/>
<polygon fill="black" stroke="black" points="242.36,-307.05 238.89,-297.04 235.36,-307.02 242.36,-307.05"/>
<text text-anchor="middle" x="253.55" y="-318.8" font-family="Times,serif" font-size="14.00">48</text>
</g>
<!-- node10 -->
<g id="node11" class="node">
<title>node10</title>
<ellipse fill="none" stroke="black" cx="342.05" cy="-279" rx="42.79" ry="18"/>
<text text-anchor="middle" x="342.05" y="-275.3" font-family="Times,serif" font-size="14.00">63,105</text>
</g>
<!-- node3&#45;&gt;node10 -->
<g id="edge8" class="edge">
<title>node3&#45;&gt;node10</title>
<path fill="none" stroke="black" d="M295.23,-348.61C303.68,-336.23 315.43,-319.01 325.04,-304.92"/>
<polygon fill="black" stroke="black" points="327.95,-306.86 330.7,-296.63 322.17,-302.92 327.95,-306.86"/>
<text text-anchor="middle" x="326.55" y="-318.8" font-family="Times,serif" font-size="14.00">78</text>
</g>
<!-- node10&#45;&gt;target -->
<g id="edge22" class="edge">
<title>node10&#45;&gt;target</title>
<path fill="none" stroke="black" d="M346.69,-260.89C355.24,-225.47 369.74,-142.81 336.05,-87 321.05,-62.16 293.11,-44.8 269.68,-33.84"/>
<polygon fill="black" stroke="black" points="270.86,-30.53 260.3,-29.67 268.02,-36.93 270.86,-30.53"/>
<text text-anchor="middle" x="371.05" y="-144.8" font-family="Times,serif" font-size="14.00">883</text>
</g>
<!-- node10&#45;&gt;node13 -->
<g id="edge21" class="edge">
<title>node10&#45;&gt;node13</title>
<path fill="none" stroke="black" d="M333.16,-261.21C326.75,-249.1 317.98,-232.53 310.68,-218.76"/>
<polygon fill="black" stroke="black" points="313.69,-216.96 305.92,-209.76 307.5,-220.23 313.69,-216.96"/>
<text text-anchor="middle" x="332.55" y="-231.8" font-family="Times,serif" font-size="14.00">56</text>
</g>
<!-- node11&#45;&gt;target -->
<g id="edge23" class="edge">
<title>node11&#45;&gt;target</title>
<path fill="none" stroke="black" d="M176.91,-174.95C159.42,-154.36 134.77,-117.64 149.05,-87 158.76,-66.17 178.34,-49.45 195.82,-37.8"/>
<polygon fill="black" stroke="black" points="198.12,-40.49 204.7,-32.18 194.38,-34.57 198.12,-40.49"/>
<text text-anchor="middle" x="163.05" y="-101.3" font-family="Times,serif" font-size="14.00">559</text>
</g>
<!-- node14 -->
<g id="node21" class="node">
<title>node14</title>
<ellipse fill="none" stroke="black" cx="235.05" cy="-105" rx="48.99" ry="18"/>
<text text-anchor="middle" x="235.05" y="-101.3" font-family="Times,serif" font-size="14.00">103,107</text>
</g>
<!-- node11&#45;&gt;node14 -->
<g id="edge24" class="edge">
<title>node11&#45;&gt;node14</title>
<path fill="none" stroke="black" d="M200.54,-174.21C206.67,-162.1 215.05,-145.53 222.02,-131.76"/>
<polygon fill="black" stroke="black" points="225.18,-133.26 226.57,-122.76 218.93,-130.1 225.18,-133.26"/>
<text text-anchor="middle" x="231.05" y="-144.8" font-family="Times,serif" font-size="14.00">146</text>
</g>
<!-- node13&#45;&gt;target -->
<g id="edge28" class="edge">
<title>node13&#45;&gt;target</title>
<path fill="none" stroke="black" d="M299.98,-173.96C300.82,-168.27 301.63,-161.88 302.05,-156 304.24,-125.15 305.55,-115.29 293.05,-87 285.05,-68.91 270.22,-52.52 256.95,-40.37"/>
<polygon fill="black" stroke="black" points="259.2,-37.69 249.38,-33.72 254.58,-42.95 259.2,-37.69"/>
<text text-anchor="middle" x="318.05" y="-101.3" font-family="Times,serif" font-size="14.00">583</text>
</g>
<!-- node13&#45;&gt;node14 -->
<g id="edge27" class="edge">
<title>node13&#45;&gt;node14</title>
<path fill="none" stroke="black" d="M285.09,-174.61C276.06,-162.23 263.5,-145.01 253.23,-130.92"/>
<polygon fill="black" stroke="black" points="255.9,-128.65 247.18,-122.63 250.24,-132.77 255.9,-128.65"/>
<text text-anchor="middle" x="284.05" y="-144.8" font-family="Times,serif" font-size="14.00">218</text>
</g>
<!-- node15 -->
<g id="node16" class="node">
<title>node15</title>
<ellipse fill="none" stroke="black" cx="95.05" cy="-540" rx="37.09" ry="18"/>
<text text-anchor="middle" x="95.05" y="-536.3" font-family="Times,serif" font-size="14.00">87,19</text>
</g>
<!-- node6&#45;&gt;node15 -->
<g id="edge13" class="edge">
<title>node6&#45;&gt;node15</title>
<path fill="none" stroke="black" d="M144.57,-610.01C135.6,-597.51 122.97,-579.9 112.7,-565.61"/>
<polygon fill="black" stroke="black" points="115.35,-563.29 106.68,-557.21 109.66,-567.37 115.35,-563.29"/>
<text text-anchor="middle" x="144.05" y="-579.8" font-family="Times,serif" font-size="14.00">334</text>
</g>
<!-- node18 -->
<g id="node17" class="node">
<title>node18</title>
<ellipse fill="none" stroke="black" cx="187.05" cy="-540" rx="37.09" ry="18"/>
<text text-anchor="middle" x="187.05" y="-536.3" font-family="Times,serif" font-size="14.00">55,39</text>
</g>
<!-- node6&#45;&gt;node18 -->
<g id="edge14" class="edge">
<title>node6&#45;&gt;node18</title>
<path fill="none" stroke="black" d="M162,-609.32C165.49,-599.59 169.99,-587.09 174.05,-576 175.05,-573.26 176.1,-570.4 177.15,-567.55"/>
<polygon fill="black" stroke="black" points="180.47,-568.67 180.66,-558.08 173.91,-566.24 180.47,-568.67"/>
<text text-anchor="middle" x="188.05" y="-579.8" font-family="Times,serif" font-size="14.00">142</text>
</g>
<!-- node23 -->
<g id="node23" class="node">
<title>node23</title>
<ellipse fill="none" stroke="black" cx="37.05" cy="-453" rx="37.09" ry="18"/>
<text text-anchor="middle" x="37.05" y="-449.3" font-family="Times,serif" font-size="14.00">107,7</text>
</g>
<!-- node15&#45;&gt;node23 -->
<g id="edge31" class="edge">
<title>node15&#45;&gt;node23</title>
<path fill="none" stroke="black" d="M83.22,-522.71C79.01,-516.84 74.27,-510.16 70.05,-504 64.49,-495.9 58.54,-486.97 53.24,-478.93"/>
<polygon fill="black" stroke="black" points="56,-476.76 47.6,-470.31 50.15,-480.6 56,-476.76"/>
<text text-anchor="middle" x="84.05" y="-492.8" font-family="Times,serif" font-size="14.00">192</text>
</g>
<!-- node20 -->
<g id="node24" class="node">
<title>node20</title>
<ellipse fill="none" stroke="black" cx="129.05" cy="-453" rx="37.09" ry="18"/>
<text text-anchor="middle" x="129.05" y="-449.3" font-family="Times,serif" font-size="14.00">77,39</text>
</g>
<!-- node15&#45;&gt;node20 -->
<g id="edge32" class="edge">
<title>node15&#45;&gt;node20</title>
<path fill="none" stroke="black" d="M97.72,-521.9C99.61,-512.03 102.61,-499.53 107.05,-489 108.5,-485.56 110.27,-482.07 112.17,-478.69"/>
<polygon fill="black" stroke="black" points="115.16,-480.49 117.37,-470.13 109.18,-476.86 115.16,-480.49"/>
<text text-anchor="middle" x="121.05" y="-492.8" font-family="Times,serif" font-size="14.00">158</text>
</g>
<!-- node18&#45;&gt;node20 -->
<g id="edge37" class="edge">
<title>node18&#45;&gt;node20</title>
<path fill="none" stroke="black" d="M175.86,-522.61C167.36,-510.15 155.51,-492.79 145.87,-478.65"/>
<polygon fill="black" stroke="black" points="148.72,-476.63 140.2,-470.34 142.94,-480.57 148.72,-476.63"/>
<text text-anchor="middle" x="176.05" y="-492.8" font-family="Times,serif" font-size="14.00">126</text>
</g>
<!-- node18&#45;&gt;node21 -->
<g id="edge38" class="edge">
<title>node18&#45;&gt;node21</title>
<path fill="none" stroke="black" d="M193.76,-522.21C198.56,-510.22 205.11,-493.85 210.58,-480.16"/>
<polygon fill="black" stroke="black" points="213.88,-481.34 214.34,-470.76 207.38,-478.74 213.88,-481.34"/>
<text text-anchor="middle" x="221.05" y="-492.8" font-family="Times,serif" font-size="14.00">164</text>
</g>
<!-- node17&#45;&gt;node24 -->
<g id="edge36" class="edge">
<title>node17&#45;&gt;node24</title>
<path fill="none" stroke="black" d="M249.36,-609.21C254.58,-597.22 261.7,-580.85 267.66,-567.16"/>
<polygon fill="black" stroke="black" points="270.97,-568.32 271.75,-557.76 264.55,-565.53 270.97,-568.32"/>
<text text-anchor="middle" x="272.55" y="-579.8" font-family="Times,serif" font-size="14.00">30</text>
</g>
<!-- node17&#45;&gt;node18 -->
<g id="edge35" class="edge">
<title>node17&#45;&gt;node18</title>
<path fill="none" stroke="black" d="M231.44,-609.61C223.45,-597.26 212.36,-580.12 203.26,-566.05"/>
<polygon fill="black" stroke="black" points="205.99,-563.83 197.62,-557.34 200.11,-567.64 205.99,-563.83"/>
<text text-anchor="middle" x="232.05" y="-579.8" font-family="Times,serif" font-size="14.00">100</text>
</g>
<!-- node8 -->
<g id="node19" class="node">
<title>node8</title>
<ellipse fill="none" stroke="black" cx="89.05" cy="-366" rx="42.79" ry="18"/>
<text text-anchor="middle" x="89.05" y="-362.3" font-family="Times,serif" font-size="14.00">103,43</text>
</g>
<!-- node8&#45;&gt;node4 -->
<g id="edge18" class="edge">
<title>node8&#45;&gt;node4</title>
<path fill="none" stroke="black" d="M99.52,-348.21C107.14,-335.98 117.6,-319.21 126.23,-305.36"/>
<polygon fill="black" stroke="black" points="129.28,-307.1 131.6,-296.76 123.34,-303.39 129.28,-307.1"/>
<text text-anchor="middle" x="133.05" y="-318.8" font-family="Times,serif" font-size="14.00">102</text>
</g>
<!-- node8&#45;&gt;target -->
<g id="edge17" class="edge">
<title>node8&#45;&gt;target</title>
<path fill="none" stroke="black" d="M78.42,-348.48C68.78,-331.86 56.05,-305.17 56.05,-280 56.05,-280 56.05,-280 56.05,-104 56.05,-48.05 129.57,-28.93 181.03,-22.39"/>
<polygon fill="black" stroke="black" points="181.46,-25.86 191,-21.24 180.66,-18.91 181.46,-25.86"/>
<text text-anchor="middle" x="74.55" y="-188.3" font-family="Times,serif" font-size="14.00">1009</text>
</g>
<!-- node9 -->
<g id="node20" class="node">
<title>node9</title>
<ellipse fill="none" stroke="black" cx="396.05" cy="-366" rx="42.79" ry="18"/>
<text text-anchor="middle" x="396.05" y="-362.3" font-family="Times,serif" font-size="14.00">35,109</text>
</g>
<!-- node9&#45;&gt;node10 -->
<g id="edge19" class="edge">
<title>node9&#45;&gt;node10</title>
<path fill="none" stroke="black" d="M384.36,-348.4C380.38,-342.63 375.95,-336.08 372.05,-330 367.02,-322.16 361.73,-313.5 357.01,-305.62"/>
<polygon fill="black" stroke="black" points="359.91,-303.64 351.8,-296.82 353.89,-307.21 359.91,-303.64"/>
<text text-anchor="middle" x="386.05" y="-318.8" font-family="Times,serif" font-size="14.00">168</text>
</g>
<!-- node9&#45;&gt;target -->
<g id="edge20" class="edge">
<title>node9&#45;&gt;target</title>
<path fill="none" stroke="black" d="M401.84,-347.97C407.1,-330.96 414.05,-303.98 414.05,-280 414.05,-280 414.05,-280 414.05,-104 414.05,-44.66 334.21,-26.62 279.71,-21.21"/>
<polygon fill="black" stroke="black" points="279.79,-17.7 269.52,-20.31 279.17,-24.68 279.79,-17.7"/>
<text text-anchor="middle" x="432.55" y="-188.3" font-family="Times,serif" font-size="14.00">1079</text>
</g>
<!-- node14&#45;&gt;target -->
<g id="edge29" class="edge">
<title>node14&#45;&gt;target</title>
<path fill="none" stroke="black" d="M217.93,-88.07C213.14,-82.55 208.56,-75.98 206.05,-69 202.96,-60.44 205.42,-51.4 209.75,-43.38"/>
<polygon fill="black" stroke="black" points="212.77,-45.16 215.24,-34.86 206.89,-41.37 212.77,-45.16"/>
<text text-anchor="middle" x="220.05" y="-57.8" font-family="Times,serif" font-size="14.00">425</text>
</g>
<!-- node14&#45;&gt;target -->
<g id="edge30" class="edge">
<title>node14&#45;&gt;target</title>
<path fill="none" stroke="black" d="M235.1,-86.86C235.03,-77.2 234.78,-64.92 234.05,-54 233.88,-51.44 233.65,-48.77 233.4,-46.11"/>
<polygon fill="black" stroke="black" points="236.87,-45.63 232.32,-36.06 229.91,-46.38 236.87,-45.63"/>
<text text-anchor="middle" x="249.05" y="-57.8" font-family="Times,serif" font-size="14.00">353</text>
</g>
<!-- node12&#45;&gt;node3 -->
<g id="edge25" class="edge">
<title>node12&#45;&gt;node3</title>
<path fill="none" stroke="black" d="M304.63,-435.16C301.98,-429.48 299.2,-423.04 297.05,-417 294.44,-409.68 292.11,-401.59 290.17,-394.09"/>
<polygon fill="black" stroke="black" points="293.56,-393.22 287.77,-384.35 286.77,-394.9 293.56,-393.22"/>
<text text-anchor="middle" x="311.05" y="-405.8" font-family="Times,serif" font-size="14.00">150</text>
</g>
<!-- node12&#45;&gt;node9 -->
<g id="edge26" class="edge">
<title>node12&#45;&gt;node9</title>
<path fill="none" stroke="black" d="M328.27,-436.41C340.86,-423.51 358.94,-405 373.26,-390.34"/>
<polygon fill="black" stroke="black" points="375.87,-392.67 380.36,-383.07 370.87,-387.78 375.87,-392.67"/>
<text text-anchor="middle" x="374.05" y="-405.8" font-family="Times,serif" font-size="14.00">156</text>
</g>
<!-- node23&#45;&gt;target -->
<g id="edge47" class="edge">
<title>node23&#45;&gt;target</title>
<path fill="none" stroke="black" d="M26.42,-435.48C16.78,-418.86 4.05,-392.17 4.05,-367 4.05,-367 4.05,-367 4.05,-104 4.05,-68.25 34.72,-69.26 67.05,-54 103.22,-36.92 147.84,-28.08 181.25,-23.56"/>
<polygon fill="black" stroke="black" points="181.75,-27.03 191.23,-22.29 180.87,-20.08 181.75,-27.03"/>
<text text-anchor="middle" x="22.55" y="-231.8" font-family="Times,serif" font-size="14.00">1333</text>
</g>
<!-- node23&#45;&gt;node8 -->
<g id="edge48" class="edge">
<title>node23&#45;&gt;node8</title>
<path fill="none" stroke="black" d="M41.67,-435.02C44.84,-424.96 49.64,-412.23 56.05,-402 58.63,-397.88 61.74,-393.83 65.01,-390.02"/>
<polygon fill="black" stroke="black" points="67.63,-392.34 71.82,-382.61 62.47,-387.61 67.63,-392.34"/>
<text text-anchor="middle" x="70.05" y="-405.8" font-family="Times,serif" font-size="14.00">204</text>
</g>
<!-- node20&#45;&gt;node2 -->
<g id="edge42" class="edge">
<title>node20&#45;&gt;node2</title>
<path fill="none" stroke="black" d="M141.04,-435.78C148.27,-425.99 157.69,-413.28 166.05,-402 168.58,-398.58 171.26,-394.97 173.89,-391.43"/>
<polygon fill="black" stroke="black" points="176.72,-393.49 179.87,-383.38 171.1,-389.32 176.72,-393.49"/>
<text text-anchor="middle" x="180.05" y="-405.8" font-family="Times,serif" font-size="14.00">112</text>
</g>
<!-- node20&#45;&gt;node8 -->
<g id="edge41" class="edge">
<title>node20&#45;&gt;node8</title>
<path fill="none" stroke="black" d="M108.74,-437.78C102.25,-432.11 95.79,-425.01 92.05,-417 88.85,-410.14 87.48,-402.17 87.06,-394.64"/>
<polygon fill="black" stroke="black" points="90.56,-394.42 87.02,-384.43 83.56,-394.45 90.56,-394.42"/>
<text text-anchor="middle" x="106.05" y="-405.8" font-family="Times,serif" font-size="14.00">118</text>
</g>
<!-- node16&#45;&gt;target -->
<g id="edge34" class="edge">
<title>node16&#45;&gt;target</title>
<path fill="none" stroke="black" d="M433.31,-437.29C453.14,-422.24 479.05,-396.86 479.05,-367 479.05,-367 479.05,-367 479.05,-104 479.05,-65.77 444.16,-69.12 409.05,-54 367.18,-35.97 315.79,-27.15 278.83,-22.88"/>
<polygon fill="black" stroke="black" points="279.13,-19.39 268.81,-21.8 278.38,-26.35 279.13,-19.39"/>
<text text-anchor="middle" x="497.55" y="-231.8" font-family="Times,serif" font-size="14.00">1461</text>
</g>
<!-- node16&#45;&gt;node9 -->
<g id="edge33" class="edge">
<title>node16&#45;&gt;node9</title>
<path fill="none" stroke="black" d="M408.01,-434.8C405.96,-423.16 403.2,-407.55 400.85,-394.24"/>
<polygon fill="black" stroke="black" points="404.26,-393.41 399.08,-384.18 397.37,-394.63 404.26,-393.41"/>
<text text-anchor="middle" x="418.05" y="-405.8" font-family="Times,serif" font-size="14.00">114</text>
</g>
<!-- node21&#45;&gt;node2 -->
<g id="edge43" class="edge">
<title>node21&#45;&gt;node2</title>
<path fill="none" stroke="black" d="M210.71,-435.39C207.54,-429.72 204.31,-423.24 202.05,-417 199.39,-409.68 197.38,-401.48 195.89,-393.87"/>
<polygon fill="black" stroke="black" points="199.33,-393.25 194.15,-384.01 192.44,-394.46 199.33,-393.25"/>
<text text-anchor="middle" x="211.55" y="-405.8" font-family="Times,serif" font-size="14.00">82</text>
</g>
<!-- node21&#45;&gt;node3 -->
<g id="edge44" class="edge">
<title>node21&#45;&gt;node3</title>
<path fill="none" stroke="black" d="M233.19,-435.61C242.49,-423.07 255.46,-405.57 265.98,-391.38"/>
<polygon fill="black" stroke="black" points="269.01,-393.17 272.15,-383.05 263.38,-389 269.01,-393.17"/>
<text text-anchor="middle" x="266.55" y="-405.8" font-family="Times,serif" font-size="14.00">80</text>
</g>
<!-- node25 -->
<g id="node27" class="node">
<title>node25</title>
<ellipse fill="lightgrey" stroke="black" cx="251.05" cy="-888" rx="33.29" ry="18"/>
<text text-anchor="middle" x="251.05" y="-884.3" font-family="Times,serif" font-size="14.00">start</text>
</g>
<!-- node25&#45;&gt;node1 -->
<g id="edge51" class="edge">
<title>node25&#45;&gt;node1</title>
<path fill="none" stroke="black" d="M251.05,-869.8C251.05,-858.16 251.05,-842.55 251.05,-829.24"/>
<polygon fill="black" stroke="black" points="254.55,-829.18 251.05,-819.18 247.55,-829.18 254.55,-829.18"/>
<text text-anchor="middle" x="265.05" y="-840.8" font-family="Times,serif" font-size="14.00">107</text>
</g>
</g>
</svg>
