<?xml version="1.0" encoding="UTF-8" standalone="no"?>
<!DOCTYPE svg PUBLIC "-//W3C//DTD SVG 1.1//EN"
 "http://www.w3.org/Graphics/SVG/1.1/DTD/svg11.dtd">
<!-- Generated by graphviz version 2.43.0 (0)
 -->
<!-- Title: %3 Pages: 1 -->
<svg width="648pt" height="1088pt"
 viewBox="0.00 0.00 647.75 1088.00" xmlns="http://www.w3.org/2000/svg" xmlns:xlink="http://www.w3.org/1999/xlink">
<g id="graph0" class="graph" transform="scale(1 1) rotate(0) translate(4 1084)">
<title>%3</title>
<polygon fill="white" stroke="transparent" points="-4,4 -4,-1084 643.75,-1084 643.75,4 -4,4"/>
<!-- node0 -->
<g id="node1" class="node">
<title>node0</title>
<ellipse fill="none" stroke="black" cx="350.75" cy="-801" rx="37.09" ry="18"/>
<text text-anchor="middle" x="350.75" y="-797.3" font-family="Times,serif" font-size="14.00">31,57</text>
</g>
<!-- node29 -->
<g id="node2" class="node">
<title>node29</title>
<ellipse fill="none" stroke="black" cx="347.75" cy="-540" rx="37.09" ry="18"/>
<text text-anchor="middle" x="347.75" y="-536.3" font-family="Times,serif" font-size="14.00">63,67</text>
</g>
<!-- node0&#45;&#45;node29 -->
<g id="edge1" class="edge">
<title>node0&#45;&#45;node29</title>
<path fill="none" stroke="black" d="M350.54,-782.6C350,-735.42 348.49,-605.41 347.95,-558.32"/>
<text text-anchor="middle" x="362.75" y="-666.8" font-family="Times,serif" font-size="14.00">174</text>
</g>
<!-- node21 -->
<g id="node3" class="node">
<title>node21</title>
<ellipse fill="none" stroke="black" cx="276.75" cy="-714" rx="37.09" ry="18"/>
<text text-anchor="middle" x="276.75" y="-710.3" font-family="Times,serif" font-size="14.00">43,77</text>
</g>
<!-- node0&#45;&#45;node21 -->
<g id="edge2" class="edge">
<title>node0&#45;&#45;node21</title>
<path fill="none" stroke="black" d="M334.1,-784.81C327.82,-778.84 320.76,-771.79 314.75,-765 305.21,-754.22 295.4,-741.27 288.14,-731.24"/>
<text text-anchor="middle" x="324.25" y="-753.8" font-family="Times,serif" font-size="14.00">68</text>
</g>
<!-- node12 -->
<g id="node4" class="node">
<title>node12</title>
<ellipse fill="none" stroke="black" cx="424.75" cy="-714" rx="37.09" ry="18"/>
<text text-anchor="middle" x="424.75" y="-710.3" font-family="Times,serif" font-size="14.00">39,43</text>
</g>
<!-- node0&#45;&#45;node12 -->
<g id="edge3" class="edge">
<title>node0&#45;&#45;node12</title>
<path fill="none" stroke="black" d="M363.4,-784C371.36,-774.07 381.96,-761.13 391.75,-750 397.48,-743.48 404,-736.48 409.73,-730.47"/>
<text text-anchor="middle" x="401.25" y="-753.8" font-family="Times,serif" font-size="14.00">30</text>
</g>
<!-- node28 -->
<g id="node7" class="node">
<title>node28</title>
<ellipse fill="none" stroke="black" cx="349.75" cy="-279" rx="37.09" ry="18"/>
<text text-anchor="middle" x="349.75" y="-275.3" font-family="Times,serif" font-size="14.00">81,59</text>
</g>
<!-- node29&#45;&#45;node28 -->
<g id="edge50" class="edge">
<title>node29&#45;&#45;node28</title>
<path fill="none" stroke="black" d="M347.88,-521.6C348.24,-474.42 349.25,-344.41 349.61,-297.32"/>
<text text-anchor="middle" x="358.25" y="-405.8" font-family="Times,serif" font-size="14.00">82</text>
</g>
<!-- node30 -->
<g id="node33" class="node">
<title>node30</title>
<ellipse fill="none" stroke="black" cx="276.75" cy="-627" rx="37.09" ry="18"/>
<text text-anchor="middle" x="276.75" y="-623.3" font-family="Times,serif" font-size="14.00">61,85</text>
</g>
<!-- node21&#45;&#45;node30 -->
<g id="edge39" class="edge">
<title>node21&#45;&#45;node30</title>
<path fill="none" stroke="black" d="M276.75,-695.8C276.75,-681.05 276.75,-659.92 276.75,-645.18"/>
<text text-anchor="middle" x="290.75" y="-666.8" font-family="Times,serif" font-size="14.00">150</text>
</g>
<!-- node2 -->
<g id="node8" class="node">
<title>node2</title>
<ellipse fill="none" stroke="black" cx="424.75" cy="-627" rx="37.09" ry="18"/>
<text text-anchor="middle" x="424.75" y="-623.3" font-family="Times,serif" font-size="14.00">55,39</text>
</g>
<!-- node12&#45;&#45;node2 -->
<g id="edge24" class="edge">
<title>node12&#45;&#45;node2</title>
<path fill="none" stroke="black" d="M424.75,-695.8C424.75,-681.05 424.75,-659.92 424.75,-645.18"/>
<text text-anchor="middle" x="438.75" y="-666.8" font-family="Times,serif" font-size="14.00">100</text>
</g>
<!-- node1 -->
<g id="node5" class="node">
<title>node1</title>
<ellipse fill="none" stroke="black" cx="280.75" cy="-366" rx="37.09" ry="18"/>
<text text-anchor="middle" x="280.75" y="-362.3" font-family="Times,serif" font-size="14.00">77,77</text>
</g>
<!-- node22 -->
<g id="node6" class="node">
<title>node22</title>
<ellipse fill="none" stroke="black" cx="279.75" cy="-105" rx="42.79" ry="18"/>
<text text-anchor="middle" x="279.75" y="-101.3" font-family="Times,serif" font-size="14.00">109,75</text>
</g>
<!-- node1&#45;&#45;node22 -->
<g id="edge4" class="edge">
<title>node1&#45;&#45;node22</title>
<path fill="none" stroke="black" d="M280.68,-347.6C280.5,-300.42 279.99,-170.41 279.81,-123.32"/>
<text text-anchor="middle" x="293.75" y="-231.8" font-family="Times,serif" font-size="14.00">218</text>
</g>
<!-- node1&#45;&#45;node28 -->
<g id="edge5" class="edge">
<title>node1&#45;&#45;node28</title>
<path fill="none" stroke="black" d="M291.02,-348.23C297.41,-338.24 306.05,-325.51 314.75,-315 320.33,-308.25 327.03,-301.32 333.05,-295.43"/>
<text text-anchor="middle" x="324.25" y="-318.8" font-family="Times,serif" font-size="14.00">70</text>
</g>
<!-- node27 -->
<g id="node19" class="node">
<title>node27</title>
<ellipse fill="none" stroke="black" cx="279.75" cy="-18" rx="42.79" ry="18"/>
<text text-anchor="middle" x="279.75" y="-14.3" font-family="Times,serif" font-size="14.00">129,89</text>
</g>
<!-- node22&#45;&#45;node27 -->
<g id="edge40" class="edge">
<title>node22&#45;&#45;node27</title>
<path fill="none" stroke="black" d="M279.75,-86.8C279.75,-72.05 279.75,-50.92 279.75,-36.18"/>
<text text-anchor="middle" x="293.75" y="-57.8" font-family="Times,serif" font-size="14.00">134</text>
</g>
<!-- node13 -->
<g id="node24" class="node">
<title>node13</title>
<ellipse fill="none" stroke="black" cx="366.75" cy="-192" rx="42.79" ry="18"/>
<text text-anchor="middle" x="366.75" y="-188.3" font-family="Times,serif" font-size="14.00">105,67</text>
</g>
<!-- node28&#45;&#45;node13 -->
<g id="edge49" class="edge">
<title>node28&#45;&#45;node13</title>
<path fill="none" stroke="black" d="M353.19,-260.8C356.14,-246.05 360.36,-224.92 363.31,-210.18"/>
<text text-anchor="middle" x="372.75" y="-231.8" font-family="Times,serif" font-size="14.00">136</text>
</g>
<!-- node2&#45;&#45;node29 -->
<g id="edge7" class="edge">
<title>node2&#45;&#45;node29</title>
<path fill="none" stroke="black" d="M404.97,-611.32C397.61,-605.41 389.43,-598.27 382.75,-591 373.28,-580.7 364.27,-567.73 357.76,-557.58"/>
<text text-anchor="middle" x="396.75" y="-579.8" font-family="Times,serif" font-size="14.00">164</text>
</g>
<!-- node23 -->
<g id="node9" class="node">
<title>node23</title>
<ellipse fill="none" stroke="black" cx="424.75" cy="-453" rx="37.09" ry="18"/>
<text text-anchor="middle" x="424.75" y="-449.3" font-family="Times,serif" font-size="14.00">77,39</text>
</g>
<!-- node2&#45;&#45;node23 -->
<g id="edge6" class="edge">
<title>node2&#45;&#45;node23</title>
<path fill="none" stroke="black" d="M424.75,-608.88C424.75,-575.91 424.75,-503.97 424.75,-471.05"/>
<text text-anchor="middle" x="438.75" y="-536.3" font-family="Times,serif" font-size="14.00">126</text>
</g>
<!-- node8 -->
<g id="node10" class="node">
<title>node8</title>
<ellipse fill="none" stroke="black" cx="501.75" cy="-540" rx="31.4" ry="18"/>
<text text-anchor="middle" x="501.75" y="-536.3" font-family="Times,serif" font-size="14.00">57,7</text>
</g>
<!-- node2&#45;&#45;node8 -->
<g id="edge8" class="edge">
<title>node2&#45;&#45;node8</title>
<path fill="none" stroke="black" d="M434.76,-609.42C441.27,-599.27 450.28,-586.3 459.75,-576 466.81,-568.31 475.56,-560.77 483.24,-554.67"/>
<text text-anchor="middle" x="473.75" y="-579.8" font-family="Times,serif" font-size="14.00">142</text>
</g>
<!-- node23&#45;&#45;node28 -->
<g id="edge42" class="edge">
<title>node23&#45;&#45;node28</title>
<path fill="none" stroke="black" d="M417.42,-435.19C403.08,-402.31 371.47,-329.81 357.1,-296.87"/>
<text text-anchor="middle" x="407.75" y="-362.3" font-family="Times,serif" font-size="14.00">112</text>
</g>
<!-- node24 -->
<g id="node20" class="node">
<title>node24</title>
<ellipse fill="none" stroke="black" cx="475.75" cy="-366" rx="37.09" ry="18"/>
<text text-anchor="middle" x="475.75" y="-362.3" font-family="Times,serif" font-size="14.00">87,19</text>
</g>
<!-- node23&#45;&#45;node24 -->
<g id="edge43" class="edge">
<title>node23&#45;&#45;node24</title>
<path fill="none" stroke="black" d="M421.82,-434.81C420.95,-424.68 421.38,-411.94 426.75,-402 431.96,-392.34 441.14,-384.72 450.16,-379.09"/>
<text text-anchor="middle" x="440.75" y="-405.8" font-family="Times,serif" font-size="14.00">158</text>
</g>
<!-- node26 -->
<g id="node34" class="node">
<title>node26</title>
<ellipse fill="none" stroke="black" cx="573.75" cy="-366" rx="42.79" ry="18"/>
<text text-anchor="middle" x="573.75" y="-362.3" font-family="Times,serif" font-size="14.00">103,43</text>
</g>
<!-- node23&#45;&#45;node26 -->
<g id="edge41" class="edge">
<title>node23&#45;&#45;node26</title>
<path fill="none" stroke="black" d="M448.03,-438.72C475.53,-423.03 521.08,-397.05 549.14,-381.04"/>
<text text-anchor="middle" x="521.75" y="-405.8" font-family="Times,serif" font-size="14.00">118</text>
</g>
<!-- node8&#45;&#45;node24 -->
<g id="edge17" class="edge">
<title>node8&#45;&#45;node24</title>
<path fill="none" stroke="black" d="M506.22,-521.9C512.32,-495.3 520.85,-442.84 505.75,-402 503.02,-394.64 497.99,-387.79 492.81,-382.13"/>
<text text-anchor="middle" x="527.75" y="-449.3" font-family="Times,serif" font-size="14.00">334</text>
</g>
<!-- node3 -->
<g id="node11" class="node">
<title>node3</title>
<ellipse fill="none" stroke="black" cx="48.75" cy="-279" rx="48.99" ry="18"/>
<text text-anchor="middle" x="48.75" y="-275.3" font-family="Times,serif" font-size="14.00">109,123</text>
</g>
<!-- node20 -->
<g id="node12" class="node">
<title>node20</title>
<ellipse fill="none" stroke="black" cx="90.75" cy="-192" rx="48.99" ry="18"/>
<text text-anchor="middle" x="90.75" y="-188.3" font-family="Times,serif" font-size="14.00">135,135</text>
</g>
<!-- node3&#45;&#45;node20 -->
<g id="edge9" class="edge">
<title>node3&#45;&#45;node20</title>
<path fill="none" stroke="black" d="M57.04,-261.21C64.41,-246.31 75.11,-224.65 82.47,-209.76"/>
<text text-anchor="middle" x="86.75" y="-231.8" font-family="Times,serif" font-size="14.00">222</text>
</g>
<!-- target -->
<g id="node32" class="node">
<title>target</title>
<ellipse fill="lightgrey" stroke="black" cx="90.75" cy="-105" rx="39.79" ry="18"/>
<text text-anchor="middle" x="90.75" y="-101.3" font-family="Times,serif" font-size="14.00">target</text>
</g>
<!-- node20&#45;&#45;target -->
<g id="edge38" class="edge">
<title>node20&#45;&#45;target</title>
<path fill="none" stroke="black" d="M90.75,-173.8C90.75,-159.05 90.75,-137.92 90.75,-123.18"/>
<text text-anchor="middle" x="100.25" y="-144.8" font-family="Times,serif" font-size="14.00">21</text>
</g>
<!-- node4 -->
<g id="node13" class="node">
<title>node4</title>
<ellipse fill="none" stroke="black" cx="205.75" cy="-975" rx="42.79" ry="18"/>
<text text-anchor="middle" x="205.75" y="-971.3" font-family="Times,serif" font-size="14.00">17,101</text>
</g>
<!-- node5 -->
<g id="node14" class="node">
<title>node5</title>
<ellipse fill="none" stroke="black" cx="202.75" cy="-801" rx="42.79" ry="18"/>
<text text-anchor="middle" x="202.75" y="-797.3" font-family="Times,serif" font-size="14.00">35,109</text>
</g>
<!-- node4&#45;&#45;node5 -->
<g id="edge10" class="edge">
<title>node4&#45;&#45;node5</title>
<path fill="none" stroke="black" d="M205.45,-956.88C204.87,-923.91 203.62,-851.97 203.04,-819.05"/>
<text text-anchor="middle" x="218.75" y="-884.3" font-family="Times,serif" font-size="14.00">114</text>
</g>
<!-- node6 -->
<g id="node15" class="node">
<title>node6</title>
<ellipse fill="none" stroke="black" cx="127.75" cy="-888" rx="42.79" ry="18"/>
<text text-anchor="middle" x="127.75" y="-884.3" font-family="Times,serif" font-size="14.00">29,133</text>
</g>
<!-- node4&#45;&#45;node6 -->
<g id="edge11" class="edge">
<title>node4&#45;&#45;node6</title>
<path fill="none" stroke="black" d="M186.15,-958.82C179.09,-952.95 171.26,-945.98 164.75,-939 155.02,-928.58 145.49,-915.61 138.54,-905.49"/>
<text text-anchor="middle" x="178.75" y="-927.8" font-family="Times,serif" font-size="14.00">476</text>
</g>
<!-- node5&#45;&#45;node21 -->
<g id="edge13" class="edge">
<title>node5&#45;&#45;node21</title>
<path fill="none" stroke="black" d="M211.66,-783.35C217.52,-773.18 225.75,-760.2 234.75,-750 241.27,-742.6 249.43,-735.43 256.81,-729.53"/>
<text text-anchor="middle" x="248.75" y="-753.8" font-family="Times,serif" font-size="14.00">156</text>
</g>
<!-- node31 -->
<g id="node16" class="node">
<title>node31</title>
<ellipse fill="none" stroke="black" cx="187.75" cy="-540" rx="42.79" ry="18"/>
<text text-anchor="middle" x="187.75" y="-536.3" font-family="Times,serif" font-size="14.00">63,105</text>
</g>
<!-- node5&#45;&#45;node31 -->
<g id="edge12" class="edge">
<title>node5&#45;&#45;node31</title>
<path fill="none" stroke="black" d="M201.74,-782.6C199.01,-735.42 191.48,-605.41 188.75,-558.32"/>
<text text-anchor="middle" x="209.75" y="-666.8" font-family="Times,serif" font-size="14.00">168</text>
</g>
<!-- node6&#45;&#45;node5 -->
<g id="edge15" class="edge">
<title>node6&#45;&#45;node5</title>
<path fill="none" stroke="black" d="M142.21,-870.61C155.57,-855.46 175.31,-833.09 188.58,-818.05"/>
<text text-anchor="middle" x="179.25" y="-840.8" font-family="Times,serif" font-size="14.00">94</text>
</g>
<!-- node9 -->
<g id="node17" class="node">
<title>node9</title>
<ellipse fill="none" stroke="black" cx="127.75" cy="-627" rx="42.79" ry="18"/>
<text text-anchor="middle" x="127.75" y="-623.3" font-family="Times,serif" font-size="14.00">53,125</text>
</g>
<!-- node6&#45;&#45;node9 -->
<g id="edge14" class="edge">
<title>node6&#45;&#45;node9</title>
<path fill="none" stroke="black" d="M127.75,-869.6C127.75,-822.42 127.75,-692.41 127.75,-645.32"/>
<text text-anchor="middle" x="141.75" y="-753.8" font-family="Times,serif" font-size="14.00">212</text>
</g>
<!-- node32 -->
<g id="node35" class="node">
<title>node32</title>
<ellipse fill="none" stroke="black" cx="179.75" cy="-453" rx="42.79" ry="18"/>
<text text-anchor="middle" x="179.75" y="-449.3" font-family="Times,serif" font-size="14.00">75,113</text>
</g>
<!-- node31&#45;&#45;node32 -->
<g id="edge54" class="edge">
<title>node31&#45;&#45;node32</title>
<path fill="none" stroke="black" d="M186.13,-521.8C184.74,-507.05 182.75,-485.92 181.36,-471.18"/>
<text text-anchor="middle" x="194.25" y="-492.8" font-family="Times,serif" font-size="14.00">56</text>
</g>
<!-- node9&#45;&#45;node31 -->
<g id="edge19" class="edge">
<title>node9&#45;&#45;node31</title>
<path fill="none" stroke="black" d="M136.8,-609.34C142.43,-599.4 150.05,-586.68 157.75,-576 162.33,-569.64 167.8,-563.02 172.81,-557.27"/>
<text text-anchor="middle" x="171.75" y="-579.8" font-family="Times,serif" font-size="14.00">110</text>
</g>
<!-- node10 -->
<g id="node21" class="node">
<title>node10</title>
<ellipse fill="none" stroke="black" cx="66.75" cy="-366" rx="42.79" ry="18"/>
<text text-anchor="middle" x="66.75" y="-362.3" font-family="Times,serif" font-size="14.00">75,127</text>
</g>
<!-- node9&#45;&#45;node10 -->
<g id="edge18" class="edge">
<title>node9&#45;&#45;node10</title>
<path fill="none" stroke="black" d="M123.74,-609.01C112.69,-562.08 81.83,-431.06 70.76,-384.06"/>
<text text-anchor="middle" x="112.75" y="-492.8" font-family="Times,serif" font-size="14.00">232</text>
</g>
<!-- node7 -->
<g id="node18" class="node">
<title>node7</title>
<ellipse fill="none" stroke="black" cx="383.75" cy="-105" rx="42.79" ry="18"/>
<text text-anchor="middle" x="383.75" y="-101.3" font-family="Times,serif" font-size="14.00">129,57</text>
</g>
<!-- node7&#45;&#45;node27 -->
<g id="edge16" class="edge">
<title>node7&#45;&#45;node27</title>
<path fill="none" stroke="black" d="M364.67,-88.41C345.91,-73.07 317.42,-49.79 298.7,-34.49"/>
<text text-anchor="middle" x="351.75" y="-57.8" font-family="Times,serif" font-size="14.00">260</text>
</g>
<!-- node14 -->
<g id="node25" class="node">
<title>node14</title>
<ellipse fill="none" stroke="black" cx="562.75" cy="-279" rx="37.09" ry="18"/>
<text text-anchor="middle" x="562.75" y="-275.3" font-family="Times,serif" font-size="14.00">107,7</text>
</g>
<!-- node24&#45;&#45;node14 -->
<g id="edge44" class="edge">
<title>node24&#45;&#45;node14</title>
<path fill="none" stroke="black" d="M491.7,-349.41C507.4,-334.07 531.23,-310.79 546.89,-295.49"/>
<text text-anchor="middle" x="537.75" y="-318.8" font-family="Times,serif" font-size="14.00">192</text>
</g>
<!-- node10&#45;&#45;node3 -->
<g id="edge20" class="edge">
<title>node10&#45;&#45;node3</title>
<path fill="none" stroke="black" d="M63.1,-347.8C59.98,-333.05 55.5,-311.92 52.38,-297.18"/>
<text text-anchor="middle" x="73.75" y="-318.8" font-family="Times,serif" font-size="14.00">298</text>
</g>
<!-- node11 -->
<g id="node22" class="node">
<title>node11</title>
<ellipse fill="none" stroke="black" cx="176.75" cy="-366" rx="48.99" ry="18"/>
<text text-anchor="middle" x="176.75" y="-362.3" font-family="Times,serif" font-size="14.00">103,107</text>
</g>
<!-- node11&#45;&#45;node22 -->
<g id="edge23" class="edge">
<title>node11&#45;&#45;node22</title>
<path fill="none" stroke="black" d="M185.83,-348.21C193.02,-334.61 203.1,-314.83 210.75,-297 237.78,-233.98 263.56,-156.47 274.39,-122.86"/>
<text text-anchor="middle" x="251.75" y="-231.8" font-family="Times,serif" font-size="14.00">146</text>
</g>
<!-- node11&#45;&#45;node3 -->
<g id="edge22" class="edge">
<title>node11&#45;&#45;node3</title>
<path fill="none" stroke="black" d="M154.16,-350C130.9,-334.56 94.87,-310.63 71.54,-295.14"/>
<text text-anchor="middle" x="134.75" y="-318.8" font-family="Times,serif" font-size="14.00">110</text>
</g>
<!-- node33 -->
<g id="node23" class="node">
<title>node33</title>
<ellipse fill="none" stroke="black" cx="158.75" cy="-279" rx="42.79" ry="18"/>
<text text-anchor="middle" x="158.75" y="-275.3" font-family="Times,serif" font-size="14.00">123,99</text>
</g>
<!-- node11&#45;&#45;node33 -->
<g id="edge21" class="edge">
<title>node11&#45;&#45;node33</title>
<path fill="none" stroke="black" d="M173.1,-347.8C169.98,-333.05 165.5,-311.92 162.38,-297.18"/>
<text text-anchor="middle" x="179.25" y="-318.8" font-family="Times,serif" font-size="14.00">84</text>
</g>
<!-- node33&#45;&#45;node20 -->
<g id="edge58" class="edge">
<title>node33&#45;&#45;node20</title>
<path fill="none" stroke="black" d="M145.63,-261.61C133.67,-246.66 116.07,-224.66 104.05,-209.63"/>
<text text-anchor="middle" x="143.75" y="-231.8" font-family="Times,serif" font-size="14.00">320</text>
</g>
<!-- node33&#45;&#45;node27 -->
<g id="edge59" class="edge">
<title>node33&#45;&#45;node27</title>
<path fill="none" stroke="black" d="M163.02,-260.91C172.01,-226.58 194.8,-147.34 227.75,-87 238.21,-67.83 253.81,-48.25 265.19,-35.06"/>
<text text-anchor="middle" x="212.25" y="-144.8" font-family="Times,serif" font-size="14.00">84</text>
</g>
<!-- node13&#45;&#45;node22 -->
<g id="edge26" class="edge">
<title>node13&#45;&#45;node22</title>
<path fill="none" stroke="black" d="M350.38,-175.01C334.83,-159.82 311.57,-137.09 296.04,-121.92"/>
<text text-anchor="middle" x="337.25" y="-144.8" font-family="Times,serif" font-size="14.00">40</text>
</g>
<!-- node13&#45;&#45;node7 -->
<g id="edge25" class="edge">
<title>node13&#45;&#45;node7</title>
<path fill="none" stroke="black" d="M370.19,-173.8C373.14,-159.05 377.36,-137.92 380.31,-123.18"/>
<text text-anchor="middle" x="389.75" y="-144.8" font-family="Times,serif" font-size="14.00">142</text>
</g>
<!-- node25 -->
<g id="node26" class="node">
<title>node25</title>
<ellipse fill="none" stroke="black" cx="562.75" cy="-192" rx="42.79" ry="18"/>
<text text-anchor="middle" x="562.75" y="-188.3" font-family="Times,serif" font-size="14.00">125,35</text>
</g>
<!-- node14&#45;&#45;node25 -->
<g id="edge27" class="edge">
<title>node14&#45;&#45;node25</title>
<path fill="none" stroke="black" d="M562.75,-260.8C562.75,-246.05 562.75,-224.92 562.75,-210.18"/>
<text text-anchor="middle" x="576.75" y="-231.8" font-family="Times,serif" font-size="14.00">462</text>
</g>
<!-- node25&#45;&#45;node7 -->
<g id="edge45" class="edge">
<title>node25&#45;&#45;node7</title>
<path fill="none" stroke="black" d="M535.17,-177.91C501.43,-161.89 444.68,-134.93 411.06,-118.97"/>
<text text-anchor="middle" x="497.75" y="-144.8" font-family="Times,serif" font-size="14.00">186</text>
</g>
<!-- node15 -->
<g id="node27" class="node">
<title>node15</title>
<ellipse fill="none" stroke="black" cx="495.75" cy="-888" rx="37.09" ry="18"/>
<text text-anchor="middle" x="495.75" y="-884.3" font-family="Times,serif" font-size="14.00">13,15</text>
</g>
<!-- node18 -->
<g id="node28" class="node">
<title>node18</title>
<ellipse fill="none" stroke="black" cx="495.75" cy="-801" rx="37.09" ry="18"/>
<text text-anchor="middle" x="495.75" y="-797.3" font-family="Times,serif" font-size="14.00">37,11</text>
</g>
<!-- node15&#45;&#45;node18 -->
<g id="edge28" class="edge">
<title>node15&#45;&#45;node18</title>
<path fill="none" stroke="black" d="M495.75,-869.8C495.75,-855.05 495.75,-833.92 495.75,-819.18"/>
<text text-anchor="middle" x="509.75" y="-840.8" font-family="Times,serif" font-size="14.00">216</text>
</g>
<!-- node18&#45;&#45;node12 -->
<g id="edge36" class="edge">
<title>node18&#45;&#45;node12</title>
<path fill="none" stroke="black" d="M478.96,-784.94C472.66,-778.97 465.62,-771.9 459.75,-765 450.68,-754.35 441.66,-741.39 435.05,-731.33"/>
<text text-anchor="middle" x="473.75" y="-753.8" font-family="Times,serif" font-size="14.00">174</text>
</g>
<!-- node18&#45;&#45;node8 -->
<g id="edge35" class="edge">
<title>node18&#45;&#45;node8</title>
<path fill="none" stroke="black" d="M496.15,-782.6C497.24,-735.42 500.25,-605.41 501.34,-558.32"/>
<text text-anchor="middle" x="512.75" y="-666.8" font-family="Times,serif" font-size="14.00">148</text>
</g>
<!-- node16 -->
<g id="node29" class="node">
<title>node16</title>
<ellipse fill="none" stroke="black" cx="424.75" cy="-975" rx="31.4" ry="18"/>
<text text-anchor="middle" x="424.75" y="-971.3" font-family="Times,serif" font-size="14.00">9,35</text>
</g>
<!-- node16&#45;&#45;node12 -->
<g id="edge29" class="edge">
<title>node16&#45;&#45;node12</title>
<path fill="none" stroke="black" d="M424.75,-956.6C424.75,-909.42 424.75,-779.41 424.75,-732.32"/>
<text text-anchor="middle" x="438.75" y="-840.8" font-family="Times,serif" font-size="14.00">194</text>
</g>
<!-- node16&#45;&#45;node15 -->
<g id="edge31" class="edge">
<title>node16&#45;&#45;node15</title>
<path fill="none" stroke="black" d="M437.77,-958.41C450.42,-943.26 469.54,-920.37 482.32,-905.07"/>
<text text-anchor="middle" x="477.75" y="-927.8" font-family="Times,serif" font-size="14.00">164</text>
</g>
<!-- node19 -->
<g id="node30" class="node">
<title>node19</title>
<ellipse fill="none" stroke="black" cx="359.75" cy="-888" rx="37.09" ry="18"/>
<text text-anchor="middle" x="359.75" y="-884.3" font-family="Times,serif" font-size="14.00">15,67</text>
</g>
<!-- node16&#45;&#45;node19 -->
<g id="edge30" class="edge">
<title>node16&#45;&#45;node19</title>
<path fill="none" stroke="black" d="M405.11,-960.59C397.43,-954.64 388.98,-947.14 382.75,-939 375.19,-929.14 369.38,-916.4 365.49,-906.25"/>
<text text-anchor="middle" x="396.75" y="-927.8" font-family="Times,serif" font-size="14.00">294</text>
</g>
<!-- node19&#45;&#45;node0 -->
<g id="edge37" class="edge">
<title>node19&#45;&#45;node0</title>
<path fill="none" stroke="black" d="M357.92,-869.8C356.36,-855.05 354.12,-833.92 352.56,-819.18"/>
<text text-anchor="middle" x="365.25" y="-840.8" font-family="Times,serif" font-size="14.00">82</text>
</g>
<!-- node17 -->
<g id="node31" class="node">
<title>node17</title>
<ellipse fill="none" stroke="black" cx="276.75" cy="-1062" rx="31.4" ry="18"/>
<text text-anchor="middle" x="276.75" y="-1058.3" font-family="Times,serif" font-size="14.00">7,81</text>
</g>
<!-- node17&#45;&#45;node21 -->
<g id="edge32" class="edge">
<title>node17&#45;&#45;node21</title>
<path fill="none" stroke="black" d="M276.75,-1043.74C276.75,-1026.57 276.75,-999.46 276.75,-976 276.75,-976 276.75,-976 276.75,-800 276.75,-776.54 276.75,-749.43 276.75,-732.26"/>
<text text-anchor="middle" x="290.75" y="-884.3" font-family="Times,serif" font-size="14.00">220</text>
</g>
<!-- node17&#45;&#45;node4 -->
<g id="edge33" class="edge">
<title>node17&#45;&#45;node4</title>
<path fill="none" stroke="black" d="M257.91,-1047.62C250.18,-1041.56 241.48,-1033.98 234.75,-1026 226.2,-1015.88 218.76,-1002.9 213.55,-992.7"/>
<text text-anchor="middle" x="248.75" y="-1014.8" font-family="Times,serif" font-size="14.00">150</text>
</g>
<!-- node17&#45;&#45;node19 -->
<g id="edge34" class="edge">
<title>node17&#45;&#45;node19</title>
<path fill="none" stroke="black" d="M284.7,-1044.51C300.53,-1011.72 335.79,-938.65 351.69,-905.69"/>
<text text-anchor="middle" x="335.25" y="-971.3" font-family="Times,serif" font-size="14.00">98</text>
</g>
<!-- node30&#45;&#45;node29 -->
<g id="edge53" class="edge">
<title>node30&#45;&#45;node29</title>
<path fill="none" stroke="black" d="M288.64,-609.44C295.93,-599.54 305.58,-586.81 314.75,-576 320.25,-569.5 326.61,-562.62 332.27,-556.7"/>
<text text-anchor="middle" x="324.25" y="-579.8" font-family="Times,serif" font-size="14.00">80</text>
</g>
<!-- node30&#45;&#45;node1 -->
<g id="edge51" class="edge">
<title>node30&#45;&#45;node1</title>
<path fill="none" stroke="black" d="M277.01,-608.6C277.74,-561.42 279.75,-431.41 280.48,-384.32"/>
<text text-anchor="middle" x="288.25" y="-492.8" font-family="Times,serif" font-size="14.00">48</text>
</g>
<!-- node30&#45;&#45;node31 -->
<g id="edge52" class="edge">
<title>node30&#45;&#45;node31</title>
<path fill="none" stroke="black" d="M260.42,-610.41C244.46,-595.17 220.29,-572.08 204.27,-556.78"/>
<text text-anchor="middle" x="247.25" y="-579.8" font-family="Times,serif" font-size="14.00">78</text>
</g>
<!-- node26&#45;&#45;node13 -->
<g id="edge47" class="edge">
<title>node26&#45;&#45;node13</title>
<path fill="none" stroke="black" d="M554.37,-349.78C537.05,-336.11 511.04,-315.41 488.75,-297 451.41,-266.16 408.46,-229.2 384.79,-208.68"/>
<text text-anchor="middle" x="502.75" y="-275.3" font-family="Times,serif" font-size="14.00">102</text>
</g>
<!-- node26&#45;&#45;node14 -->
<g id="edge48" class="edge">
<title>node26&#45;&#45;node14</title>
<path fill="none" stroke="black" d="M571.52,-347.8C569.61,-333.05 566.88,-311.92 564.97,-297.18"/>
<text text-anchor="middle" x="582.75" y="-318.8" font-family="Times,serif" font-size="14.00">204</text>
</g>
<!-- node26&#45;&#45;node25 -->
<g id="edge46" class="edge">
<title>node26&#45;&#45;node25</title>
<path fill="none" stroke="black" d="M588.47,-348.86C592.96,-343.22 597.56,-336.64 600.75,-330 614.1,-302.17 614.9,-291.25 608.75,-261 605.57,-245.39 603.36,-241.41 594.75,-228 590.39,-221.21 584.67,-214.49 579.28,-208.78"/>
<text text-anchor="middle" x="625.75" y="-275.3" font-family="Times,serif" font-size="14.00">138</text>
</g>
<!-- node32&#45;&#45;node1 -->
<g id="edge57" class="edge">
<title>node32&#45;&#45;node1</title>
<path fill="none" stroke="black" d="M196.64,-436.38C207.62,-426.36 222.33,-413.18 235.75,-402 243.96,-395.16 253.25,-387.86 261.25,-381.71"/>
<text text-anchor="middle" x="249.75" y="-405.8" font-family="Times,serif" font-size="14.00">162</text>
</g>
<!-- node32&#45;&#45;node10 -->
<g id="edge56" class="edge">
<title>node32&#45;&#45;node10</title>
<path fill="none" stroke="black" d="M159.8,-437C139.28,-421.56 107.46,-397.63 86.87,-382.14"/>
<text text-anchor="middle" x="140.25" y="-405.8" font-family="Times,serif" font-size="14.00">42</text>
</g>
<!-- node32&#45;&#45;node11 -->
<g id="edge55" class="edge">
<title>node32&#45;&#45;node11</title>
<path fill="none" stroke="black" d="M179.14,-434.8C178.62,-420.05 177.87,-398.92 177.35,-384.18"/>
<text text-anchor="middle" x="192.75" y="-405.8" font-family="Times,serif" font-size="14.00">218</text>
</g>
<!-- node34 -->
<g id="node36" class="node">
<title>node34</title>
<ellipse fill="lightgrey" stroke="black" cx="508.75" cy="-975" rx="33.29" ry="18"/>
<text text-anchor="middle" x="508.75" y="-971.3" font-family="Times,serif" font-size="14.00">start</text>
</g>
<!-- node34&#45;&#45;node15 -->
<g id="edge60" class="edge">
<title>node34&#45;&#45;node15</title>
<path fill="none" stroke="black" d="M506.11,-956.8C503.86,-942.05 500.63,-920.92 498.37,-906.18"/>
<text text-anchor="middle" x="516.75" y="-927.8" font-family="Times,serif" font-size="14.00">107</text>
</g>
</g>
</svg>
