<?xml version="1.0" encoding="UTF-8" standalone="no"?>
<!DOCTYPE svg PUBLIC "-//W3C//DTD SVG 1.1//EN"
 "http://www.w3.org/Graphics/SVG/1.1/DTD/svg11.dtd">
<!-- Generated by graphviz version 2.43.0 (0)
 -->
<!-- Title: %3 Pages: 1 -->
<svg width="577pt" height="404pt"
 viewBox="0.00 0.00 577.00 404.00" xmlns="http://www.w3.org/2000/svg" xmlns:xlink="http://www.w3.org/1999/xlink">
<g id="graph0" class="graph" transform="scale(1 1) rotate(0) translate(4 400)">
<title>%3</title>
<polygon fill="white" stroke="transparent" points="-4,4 -4,-400 573,-400 573,4 -4,4"/>
<!-- nvd -->
<g id="node1" class="node">
<title>nvd</title>
<ellipse fill="none" stroke="black" cx="213" cy="-90" rx="27.9" ry="18"/>
<text text-anchor="middle" x="213" y="-86.3" font-family="Times,serif" font-size="14.00">nvd</text>
</g>
<!-- lhk -->
<g id="node2" class="node">
<title>lhk</title>
<ellipse fill="none" stroke="black" cx="148" cy="-18" rx="27" ry="18"/>
<text text-anchor="middle" x="148" y="-14.3" font-family="Times,serif" font-size="14.00">lhk</text>
</g>
<!-- nvd&#45;&#45;lhk -->
<g id="edge1" class="edge">
<title>nvd&#45;&#45;lhk</title>
<path fill="none" stroke="black" d="M199.22,-74.15C188.18,-62.28 172.79,-45.7 161.76,-33.82"/>
</g>
<!-- lsr -->
<g id="node3" class="node">
<title>lsr</title>
<ellipse fill="none" stroke="black" cx="27" cy="-162" rx="27" ry="18"/>
<text text-anchor="middle" x="27" y="-158.3" font-family="Times,serif" font-size="14.00">lsr</text>
</g>
<!-- lsr&#45;&#45;lhk -->
<g id="edge2" class="edge">
<title>lsr&#45;&#45;lhk</title>
<path fill="none" stroke="black" d="M31.72,-144.03C37.7,-124.87 49.51,-93.57 68,-72 84.26,-53.03 108.94,-38.09 126.58,-28.98"/>
</g>
<!-- qnr -->
<g id="node4" class="node">
<title>qnr</title>
<ellipse fill="none" stroke="black" cx="213" cy="-162" rx="27" ry="18"/>
<text text-anchor="middle" x="213" y="-158.3" font-family="Times,serif" font-size="14.00">qnr</text>
</g>
<!-- qnr&#45;&#45;nvd -->
<g id="edge3" class="edge">
<title>qnr&#45;&#45;nvd</title>
<path fill="none" stroke="black" d="M213,-143.7C213,-132.85 213,-118.92 213,-108.1"/>
</g>
<!-- rzs -->
<g id="node5" class="node">
<title>rzs</title>
<ellipse fill="none" stroke="black" cx="186" cy="-378" rx="27" ry="18"/>
<text text-anchor="middle" x="186" y="-374.3" font-family="Times,serif" font-size="14.00">rzs</text>
</g>
<!-- rzs&#45;&#45;lsr -->
<g id="edge4" class="edge">
<title>rzs&#45;&#45;lsr</title>
<path fill="none" stroke="black" d="M162.85,-368.13C141.4,-359.16 109.39,-343.81 86,-324 55.28,-297.97 44.76,-289.85 31,-252 22.33,-228.16 23.13,-198.34 24.82,-179.98"/>
</g>
<!-- rzs&#45;&#45;qnr -->
<g id="edge5" class="edge">
<title>rzs&#45;&#45;qnr</title>
<path fill="none" stroke="black" d="M188.16,-359.85C193.22,-319.78 205.76,-220.38 210.83,-180.23"/>
</g>
<!-- cmg -->
<g id="node6" class="node">
<title>cmg</title>
<ellipse fill="none" stroke="black" cx="272" cy="-234" rx="30.59" ry="18"/>
<text text-anchor="middle" x="272" y="-230.3" font-family="Times,serif" font-size="14.00">cmg</text>
</g>
<!-- rzs&#45;&#45;cmg -->
<g id="edge6" class="edge">
<title>rzs&#45;&#45;cmg</title>
<path fill="none" stroke="black" d="M199.01,-361.8C207.51,-351.5 218.55,-337.38 227,-324 242.25,-299.85 256.54,-269.86 264.77,-251.59"/>
</g>
<!-- rsh -->
<g id="node7" class="node">
<title>rsh</title>
<ellipse fill="none" stroke="black" cx="122" cy="-306" rx="27" ry="18"/>
<text text-anchor="middle" x="122" y="-302.3" font-family="Times,serif" font-size="14.00">rsh</text>
</g>
<!-- rzs&#45;&#45;rsh -->
<g id="edge7" class="edge">
<title>rzs&#45;&#45;rsh</title>
<path fill="none" stroke="black" d="M172.43,-362.15C161.57,-350.28 146.41,-333.7 135.55,-321.82"/>
</g>
<!-- cmg&#45;&#45;nvd -->
<g id="edge11" class="edge">
<title>cmg&#45;&#45;nvd</title>
<path fill="none" stroke="black" d="M269.4,-216.02C266.19,-197.67 259.79,-167.85 249,-144 242.86,-130.42 233.28,-116.53 225.55,-106.39"/>
</g>
<!-- cmg&#45;&#45;lhk -->
<g id="edge12" class="edge">
<title>cmg&#45;&#45;lhk</title>
<path fill="none" stroke="black" d="M274.91,-215.77C279.29,-183.71 283.84,-114.29 250,-72 230.3,-47.38 196.06,-32.96 172.74,-25.53"/>
</g>
<!-- cmg&#45;&#45;qnr -->
<g id="edge13" class="edge">
<title>cmg&#45;&#45;qnr</title>
<path fill="none" stroke="black" d="M258.91,-217.46C248.99,-205.7 235.46,-189.64 225.65,-178.01"/>
</g>
<!-- bvb -->
<g id="node9" class="node">
<title>bvb</title>
<ellipse fill="none" stroke="black" cx="476" cy="-162" rx="27.9" ry="18"/>
<text text-anchor="middle" x="476" y="-158.3" font-family="Times,serif" font-size="14.00">bvb</text>
</g>
<!-- cmg&#45;&#45;bvb -->
<g id="edge14" class="edge">
<title>cmg&#45;&#45;bvb</title>
<path fill="none" stroke="black" d="M297.84,-224.13C337.61,-210.49 413.29,-184.52 451.96,-171.25"/>
</g>
<!-- rsh&#45;&#45;lsr -->
<g id="edge22" class="edge">
<title>rsh&#45;&#45;lsr</title>
<path fill="none" stroke="black" d="M100.91,-294.64C84.62,-285.57 62.78,-270.9 50,-252 35.16,-230.05 29.9,-199.15 28.03,-180.13"/>
</g>
<!-- frs -->
<g id="node8" class="node">
<title>frs</title>
<ellipse fill="none" stroke="black" cx="158" cy="-234" rx="27" ry="18"/>
<text text-anchor="middle" x="158" y="-230.3" font-family="Times,serif" font-size="14.00">frs</text>
</g>
<!-- rsh&#45;&#45;frs -->
<g id="edge23" class="edge">
<title>rsh&#45;&#45;frs</title>
<path fill="none" stroke="black" d="M130.35,-288.76C136.17,-277.46 143.89,-262.44 149.7,-251.15"/>
</g>
<!-- pzl -->
<g id="node15" class="node">
<title>pzl</title>
<ellipse fill="none" stroke="black" cx="86" cy="-234" rx="27" ry="18"/>
<text text-anchor="middle" x="86" y="-230.3" font-family="Times,serif" font-size="14.00">pzl</text>
</g>
<!-- rsh&#45;&#45;pzl -->
<g id="edge24" class="edge">
<title>rsh&#45;&#45;pzl</title>
<path fill="none" stroke="black" d="M113.65,-288.76C107.83,-277.46 100.11,-262.44 94.3,-251.15"/>
</g>
<!-- frs&#45;&#45;lhk -->
<g id="edge8" class="edge">
<title>frs&#45;&#45;lhk</title>
<path fill="none" stroke="black" d="M157.2,-215.85C155.33,-175.78 150.68,-76.38 148.81,-36.23"/>
</g>
<!-- frs&#45;&#45;lsr -->
<g id="edge9" class="edge">
<title>frs&#45;&#45;lsr</title>
<path fill="none" stroke="black" d="M137.53,-222.06C112.92,-208.91 71.87,-186.98 47.33,-173.86"/>
</g>
<!-- frs&#45;&#45;qnr -->
<g id="edge10" class="edge">
<title>frs&#45;&#45;qnr</title>
<path fill="none" stroke="black" d="M169.93,-217.81C179.16,-206.07 191.87,-189.89 201.09,-178.16"/>
</g>
<!-- hfx -->
<g id="node12" class="node">
<title>hfx</title>
<ellipse fill="none" stroke="black" cx="420" cy="-18" rx="27" ry="18"/>
<text text-anchor="middle" x="420" y="-14.3" font-family="Times,serif" font-size="14.00">hfx</text>
</g>
<!-- bvb&#45;&#45;hfx -->
<g id="edge29" class="edge">
<title>bvb&#45;&#45;hfx</title>
<path fill="none" stroke="black" d="M469.47,-144.43C458.73,-117.22 437.48,-63.33 426.67,-35.9"/>
</g>
<!-- xhk -->
<g id="node13" class="node">
<title>xhk</title>
<ellipse fill="none" stroke="black" cx="532" cy="-90" rx="27.1" ry="18"/>
<text text-anchor="middle" x="532" y="-86.3" font-family="Times,serif" font-size="14.00">xhk</text>
</g>
<!-- bvb&#45;&#45;xhk -->
<g id="edge30" class="edge">
<title>bvb&#45;&#45;xhk</title>
<path fill="none" stroke="black" d="M488.43,-145.46C497.71,-133.86 510.33,-118.08 519.61,-106.49"/>
</g>
<!-- ntq -->
<g id="node10" class="node">
<title>ntq</title>
<ellipse fill="none" stroke="black" cx="542" cy="-378" rx="27" ry="18"/>
<text text-anchor="middle" x="542" y="-374.3" font-family="Times,serif" font-size="14.00">ntq</text>
</g>
<!-- ntq&#45;&#45;bvb -->
<g id="edge15" class="edge">
<title>ntq&#45;&#45;bvb</title>
<path fill="none" stroke="black" d="M541.49,-359.74C540.01,-329.35 534.27,-264.91 512,-216 505.82,-202.44 496.25,-188.55 488.53,-178.4"/>
</g>
<!-- jqt -->
<g id="node11" class="node">
<title>jqt</title>
<ellipse fill="none" stroke="black" cx="495" cy="-306" rx="27" ry="18"/>
<text text-anchor="middle" x="495" y="-302.3" font-family="Times,serif" font-size="14.00">jqt</text>
</g>
<!-- ntq&#45;&#45;jqt -->
<g id="edge16" class="edge">
<title>ntq&#45;&#45;jqt</title>
<path fill="none" stroke="black" d="M531.33,-361.12C523.64,-349.66 513.3,-334.26 505.62,-322.82"/>
</g>
<!-- ntq&#45;&#45;hfx -->
<g id="edge17" class="edge">
<title>ntq&#45;&#45;hfx</title>
<path fill="none" stroke="black" d="M516.52,-371.44C463.04,-358.09 344,-318.97 344,-235 344,-235 344,-235 344,-161 344,-109.27 383.69,-58.15 405.7,-33.77"/>
</g>
<!-- ntq&#45;&#45;xhk -->
<g id="edge18" class="edge">
<title>ntq&#45;&#45;xhk</title>
<path fill="none" stroke="black" d="M544.84,-359.87C546.42,-349.52 548.21,-336.04 549,-324 551.94,-279.22 555.89,-204.94 547,-144 545.21,-131.7 541.37,-118.22 538.02,-107.94"/>
</g>
<!-- jqt&#45;&#45;nvd -->
<g id="edge19" class="edge">
<title>jqt&#45;&#45;nvd</title>
<path fill="none" stroke="black" d="M477.78,-291.94C427.44,-253.73 280.86,-142.5 230.35,-104.17"/>
</g>
<!-- jqt&#45;&#45;xhk -->
<g id="edge20" class="edge">
<title>jqt&#45;&#45;xhk</title>
<path fill="none" stroke="black" d="M500.53,-288.34C503.94,-277.93 508.34,-264.22 512,-252 521.52,-220.18 527.51,-212.91 532,-180 535.38,-155.2 534.48,-126.15 533.37,-108.15"/>
</g>
<!-- rhn -->
<g id="node14" class="node">
<title>rhn</title>
<ellipse fill="none" stroke="black" cx="476" cy="-234" rx="27" ry="18"/>
<text text-anchor="middle" x="476" y="-230.3" font-family="Times,serif" font-size="14.00">rhn</text>
</g>
<!-- jqt&#45;&#45;rhn -->
<g id="edge21" class="edge">
<title>jqt&#45;&#45;rhn</title>
<path fill="none" stroke="black" d="M490.4,-288.05C487.41,-277.05 483.54,-262.76 480.56,-251.79"/>
</g>
<!-- xhk&#45;&#45;hfx -->
<g id="edge25" class="edge">
<title>xhk&#45;&#45;hfx</title>
<path fill="none" stroke="black" d="M512.75,-76.97C492.11,-64.07 459.54,-43.72 439,-30.88"/>
</g>
<!-- rhn&#45;&#45;bvb -->
<g id="edge26" class="edge">
<title>rhn&#45;&#45;bvb</title>
<path fill="none" stroke="black" d="M476,-215.7C476,-204.85 476,-190.92 476,-180.1"/>
</g>
<!-- rhn&#45;&#45;hfx -->
<g id="edge27" class="edge">
<title>rhn&#45;&#45;hfx</title>
<path fill="none" stroke="black" d="M462.44,-217.94C454.23,-207.92 444.35,-194.05 439,-180 420.09,-130.28 418.74,-66.22 419.34,-36.09"/>
</g>
<!-- rhn&#45;&#45;xhk -->
<g id="edge28" class="edge">
<title>rhn&#45;&#45;xhk</title>
<path fill="none" stroke="black" d="M489.12,-217.76C497.15,-207.67 507.01,-193.79 513,-180 523.33,-156.24 528.22,-126.39 530.4,-108.01"/>
</g>
<!-- pzl&#45;&#45;nvd -->
<g id="edge31" class="edge">
<title>pzl&#45;&#45;nvd</title>
<path fill="none" stroke="black" d="M99.49,-218.19C109.13,-207.58 122.4,-192.94 134,-180 157.17,-154.16 183.95,-123.9 199.63,-106.16"/>
</g>
<!-- pzl&#45;&#45;lsr -->
<g id="edge32" class="edge">
<title>pzl&#45;&#45;lsr</title>
<path fill="none" stroke="black" d="M73.2,-217.81C63.3,-206.07 49.67,-189.89 39.78,-178.16"/>
</g>
<!-- pzl&#45;&#45;hfx -->
<g id="edge33" class="edge">
<title>pzl&#45;&#45;hfx</title>
<path fill="none" stroke="black" d="M90.29,-216.18C99.71,-182.91 125.48,-108.7 176,-72 242.63,-23.59 344.76,-17.84 393,-18.1"/>
</g>
</g>
</svg>
